<svg width="260" height="260" viewBox="0 0 260 260" fill="none" xmlns="http://www.w3.org/2000/svg">
  <rect width="260" height="260" rx="56" fill="#0ea5e9"/>
  <path d="M 192 166 L 72 166 C 57.2 166 45 153.9 45 139.1 C 45 126.1 53.8 115.2 65.9 112.7 C 65.4 110.4 65.1 108 65.1 105.5 C 65.1 84.3 82.3 67.1 103.5 67.1 C 117.8 67.1 130.3 74.7 137.1 86.1 C 140.4 85.1 143.9 84.6 147.5 84.6 C 167 84.6 182.8 100.3 182.8 119.7 C 182.8 121.9 182.6 124 182.2 126 C 194 130.2 202.4 141.5 202.4 154.8 C 202.4 162 196.5 166 192 166 Z" fill="rgba(255,255,255,0.12)"/>
  <path d="M 186 150 L 70 150 C 56.2 150 45 138.9 45 125.1 C 45 113 52.9 102.8 63.8 100.5 C 63.4 98.4 63.1 96.2 63.1 93.9 C 63.1 74.1 79.2 58 99 58 C 112.5 58 124.3 65.2 130.8 76 C 133.9 75.1 137.2 74.6 140.6 74.6 C 159.2 74.6 174.3 89.6 174.3 108.1 C 174.3 110.1 174.1 112.1 173.7 114 C 184.9 118 192.8 128.7 192.8 141.2 C 192.8 149.4 186.5 150 178 150 Z" fill="rgba(255,255,255,0.22)"/>
  <path d="M 178 132 L 68 132 C 55.8 132 46 122.3 46 110.1 C 46 99.3 53.4 90.3 63.5 88.3 C 63.1 86.4 62.9 84.4 62.9 82.3 C 62.9 64.1 77.7 49.3 95.9 49.3 C 107.8 49.3 118.2 55.6 124.1 65.1 C 127 64.3 130 63.9 133.1 63.9 C 150.4 63.9 164.4 77.8 164.4 95 C 164.4 96.8 164.2 98.6 163.9 100.3 C 174.3 104 181.7 113.9 181.7 125.6 C 181.7 135.5 174.4 132 165 132 Z" fill="white"/>
  <path d="M 146 84 L 114 136 L 134 136 L 120 176 L 158 118 L 136 118 Z" fill="#0ea5e9"/>
</svg>
